# xmcd CD database file
#
# Track frame offsets:
#	150
#	22633
#	35890
#	47221
#	62933
#	76765
#	91349
#	103342
#	114422
#	135456
#	150831
#	168835
#	183363
#	202238
#
# Disc length: 2922 seconds
#
# Revision: 1
# Processed by: cddbd v1.5.2PL0 Copyright (c) Steve Scherf et al.
# Submitted via: CDex 1,1,6,0
#
DISCID=b00b680e
DTITLE=Drugstore Cowboys, The - DC3
DYEAR=2007
DGENRE=Country
TTITLE0=How Luck I Am
TTITLE1=The Rowdy Outta Me
TTITLE2=Hey, Hey, Hey
TTITLE3=Sea Level
TTITLE4=If This Ain't Love
TTITLE5=Circle B and R
TTITLE6=Mama Says
TTITLE7=Dos Tacos de Chorizo Por Favor
TTITLE8=Don't Wake Up The Monster
TTITLE9=How Well Do You Sleep At Night
TTITLE10=Fightin' The Fire
TTITLE11=One More Day
TTITLE12=The Bird Has Flown
TTITLE13=Land Locked
EXTD=YEAR: 2007
EXTT0=
EXTT1=
EXTT2=
EXTT3=
EXTT4=
EXTT5=
EXTT6=
EXTT7=
EXTT8=
EXTT9=
EXTT10=
EXTT11=
EXTT12=
EXTT13=
PLAYORDER=
